# xmcd CD database file
#
# Track frame offsets:
#	150
#	16765
#	30987
#	46255
#	62875
#	88777
#	109240
#	127942
#	147472
#	162525
#
# Disc length: 2367 seconds
#
# Revision: 0
# Processed by: cddbd v1.5.1PL0 Copyright (c) Steve Scherf et al.
# Submitted via: CDex 1.51
#
DISCID=81093d0a
DTITLE=Ted Nugent - Take No Prisoners
DYEAR=2002
DGENRE=Country
TTITLE0=Cat Scratch Fever
TTITLE1=Stormtroopin'
TTITLE2=Bite Down Hard
TTITLE3=Just What the Doctor Ordered
TTITLE4=Workin' Hard, Playin' Hard
TTITLE5=Yank Me Crank Me
TTITLE6=Hammerdown
TTITLE7=Need You Bad
TTITLE8=Scream Dream
TTITLE9=Put Up or Shut-up
EXTD=YEAR: 2002
EXTT0=
EXTT1=
EXTT2=
EXTT3=
EXTT4=
EXTT5=
EXTT6=
EXTT7=
EXTT8=
EXTT9=
PLAYORDER=
